<svg width="32" height="32" viewBox="0 0 32 32" fill="none" xmlns="http://www.w3.org/2000/svg">
  <!-- Background circle with gradient -->
  <circle cx="16" cy="16" r="16" fill="url(#gradient)"/>
  
  <!-- Fork icon -->
  <path d="M10 8v3c0 0.5 0.5 1 1 1s1-0.5 1-1V8M12 8v3c0 0.5 0.5 1 1 1s1-0.5 1-1V8M11 12v8c0 1.1 0.9 2 2 2s2-0.9 2-2v-8" 
        stroke="white" stroke-width="1.5" stroke-linecap="round" stroke-linejoin="round" fill="none"/>
  
  <!-- Spoon icon -->
  <path d="M19 8c0-1.1 0.9-2 2-2s2 0.9 2 2v2c0 1.1-0.9 2-2 2s-2-0.9-2-2V8zM21 12v8c0 1.1-0.9 2-2 2s-2-0.9-2-2v-8" 
        stroke="white" stroke-width="1.5" stroke-linecap="round" stroke-linejoin="round" fill="none"/>
  
  <!-- Small food/plate accent -->
  <circle cx="16" cy="24" r="1.5" fill="white" opacity="0.8"/>
  
  <!-- Gradient definition -->
  <defs>
    <linearGradient id="gradient" x1="0%" y1="0%" x2="100%" y2="100%">
      <stop offset="0%" style="stop-color:#f59e0b;stop-opacity:1" />
      <stop offset="100%" style="stop-color:#ea580c;stop-opacity:1" />
    </linearGradient>
  </defs>
</svg>